/* XPM */
static char *maxresdefault_Cropped__1_1674086885[] = {
/* columns rows colors chars-per-pixel */
"50 50 255 2 ",
"   c #020102",
".  c #0B0405",
"X  c #03020B",
"o  c #0B050A",
"O  c #080908",
"+  c #150100",
"@  c #150708",
"#  c #18120A",
"$  c #040113",
"%  c #04021B",
"&  c #0B041B",
"*  c #0B0516",
"=  c #160B17",
"-  c #1C121B",
";  c #1B1616",
":  c #260C03",
">  c #350B04",
",  c #241403",
"<  c #281708",
"1  c #371609",
"2  c #231B14",
"3  c #271817",
"4  c #391C14",
"5  c #361C17",
"6  c #2C0F11",
"7  c #35260C",
"8  c #2C221B",
"9  c #3C231B",
"0  c #372817",
"q  c #3B2F11",
"w  c #090424",
"e  c #090625",
"r  c #140E27",
"t  c #1C1328",
"y  c #1F1733",
"u  c #241A2B",
"i  c #2C1D2C",
"p  c #261728",
"a  c #341D27",
"s  c #2C1D33",
"d  c #231932",
"f  c #311F34",
"g  c #2D212E",
"h  c #2A2226",
"j  c #3C2423",
"k  c #34232C",
"l  c #3A252C",
"z  c #3C2A2D",
"x  c #372927",
"c  c #2C2232",
"v  c #352432",
"b  c #3A2532",
"n  c #3C2A32",
"m  c #372B37",
"M  c #3C3638",
"N  c #38342E",
"B  c #47190A",
"V  c #541E0D",
"C  c #461C15",
"Z  c #661E00",
"A  c #4A260D",
"S  c #472519",
"D  c #572A18",
"F  c #4C3C1C",
"G  c #463517",
"H  c #56381A",
"J  c #5E280D",
"K  c #662918",
"L  c #7A351C",
"P  c #6C3418",
"I  c #442A23",
"U  c #4A2C24",
"Y  c #432D2C",
"T  c #472926",
"R  c #4D312C",
"E  c #463827",
"W  c #52342B",
"Q  c #553927",
"!  c #432D33",
"~  c #482F34",
"^  c #433434",
"/  c #4A3335",
"(  c #4B343B",
")  c #473939",
"_  c #523738",
"`  c #552D25",
"'  c #673828",
"]  c #723C2C",
"[  c #793924",
"{  c #6F3D34",
"}  c #54441C",
"|  c #4F411E",
" . c #684917",
".. c #744A18",
"X. c #734C14",
"o. c #4C432B",
"O. c #534323",
"+. c #594528",
"@. c #4B4438",
"#. c #574838",
"$. c #55503C",
"%. c #664828",
"&. c #784527",
"*. c #68512D",
"=. c #795726",
"-. c #694A38",
";. c #754636",
":. c #6F5338",
">. c #78563A",
",. c #786233",
"<. c #393041",
"1. c #4A3843",
"2. c #553A41",
"3. c #4A4645",
"4. c #544945",
"5. c #585145",
"6. c #555353",
"7. c #654844",
"8. c #685748",
"9. c #795746",
"0. c #785D52",
"q. c #78634D",
"w. c #756659",
"e. c #5D6367",
"r. c #646669",
"t. c #6F6C6C",
"y. c #923913",
"u. c #833B26",
"i. c #A23D13",
"p. c #97441C",
"a. c #834D1A",
"s. c #A64419",
"d. c #B5471C",
"f. c #8C4328",
"g. c #845827",
"h. c #864936",
"j. c #974B35",
"k. c #86553A",
"l. c #975938",
"z. c #964729",
"x. c #B84A27",
"c. c #A9512C",
"v. c #B9552A",
"b. c #A95739",
"n. c #B45837",
"m. c #A74B29",
"M. c #8A632A",
"N. c #93693A",
"B. c #8E6C3A",
"V. c #BB6239",
"C. c #A87531",
"Z. c #C9592B",
"A. c #C85B35",
"S. c #DA5738",
"D. c #C64F2B",
"F. c #CA653C",
"G. c #D86539",
"H. c #E46A3B",
"J. c #F1753F",
"K. c #D4502B",
"L. c #925848",
"P. c #AA5C46",
"I. c #B35C42",
"U. c #886747",
"Y. c #976949",
"T. c #997148",
"R. c #926C58",
"E. c #9A7457",
"W. c #866B57",
"Q. c #AB694A",
"!. c #BA6846",
"~. c #A76752",
"^. c #AC7359",
"/. c #BA7550",
"(. c #987667",
"). c #9A7B72",
"_. c #8D6D62",
"`. c #A57865",
"'. c #AD796E",
"]. c #C76846",
"[. c #D56C44",
"{. c #DC6C43",
"}. c #D66947",
"|. c #CB744A",
" X c #DC724B",
".X c #D77349",
"XX c #C66F57",
"oX c #C97658",
"OX c #D87857",
"+X c #E36D43",
"@X c #E76C44",
"#X c #F26C47",
"$X c #E4744B",
"%X c #EB754B",
"&X c #ED794C",
"*X c #E97445",
"=X c #F3754B",
"-X c #F97A4B",
";X c #E97A54",
":X c #F47C52",
">X c #FB7C53",
",X c #FB7B58",
"<X c #CC7663",
"1X c #D57B65",
"2X c #E05F42",
"3X c #AC8537",
"4X c #B0833F",
"5X c #9B8A55",
"6X c #A8874B",
"7X c #B48451",
"8X c #9B847A",
"9X c #AC826B",
"0X c #B58867",
"qX c #A98679",
"wX c #B48977",
"eX c #BC937B",
"rX c #B69171",
"tX c #D8825B",
"yX c #C68A52",
"uX c #EA8359",
"iX c #FD8255",
"pX c #F3835B",
"aX c #FE845B",
"sX c #FD8B5D",
"dX c #F68656",
"fX c #F8844E",
"gX c #D3A25E",
"hX c #C58368",
"jX c #D2916E",
"kX c #EB8363",
"lX c #E98A64",
"zX c #FD8B63",
"xX c #F78864",
"cX c #FA9467",
"vX c #F49978",
"bX c #EC9272",
"nX c #D6A365",
"mX c #FDA57B",
"MX c #AB8F84",
"NX c #B59386",
"BX c #AC9286",
"VX c #ACA293",
"CX c #BBB7B7",
"ZX c #918A82",
"AX c #D5A791",
"SX c #F2A98C",
"DX c #DAAA9A",
"FX c #CDC7B1",
"GX c #D2D0CC",
"HX c #F6DACC",
"JX c #EBE6D7",
"KX c #DEE6E5",
"LX c #E6FAF9",
"PX c #EFF4EF",
"IX c #DDE4DC",
/* pixels */
"        X .                 X X     X               O   .         X   X       X                     ",
"                                X               O               X                         .         ",
"        .         X         O         X X           O         X .                                   ",
"          .                               X               O X               O   O           O       ",
"              .     .     O                         O X   O     $           X X       O             ",
"E ^ ^ N Y ^ ) ) @.) ) ) ) ) 2.@.N ; # # o # = - 8 u 3.e.e.e.e.r.0.7.3.4.4.r.e.r.r.e.6.N 2 # ; 8 2 # ",
").8X8X8X8XMXNXeXNXBXqXBXMXMX8Xw.) 8 2 2 ; 2 2 3 h M 6.CXGXLXLXPXHXDXDXNXCXLXLXLXLXKXVX8.O.G o.E F F ",
"_.).8X).).qXwXrXeXwXNXqXwXqX0.5 7 @ , : @ < 2 : 2 2 c 1.t.GXLXPXDXbXAX`.GXPXLXLXLXKXt.7.*.O.q G O.F ",
").(.).).qX).MXwXwXeXNX'.qXNXI 5 4 6 1 B 1 > 1 6 3 , 3 N h 3.VXJXDX1X<X<XAXKXPXLXLXPXZX8.O.O.} } G *.",
")._._.).).(.'.'.9X9X'.NXNXR.4 4 D K K [ u.' J C 1 > < 5 8 0 ^ _.hXvXxX<X^.HXPXKXLXIXJXMXE | } } F } ",
"(.R.W.).(.(.rXNXrX^.wXNX_.C D ;.~.1XOXkXkXOXI.z.L V 1 : 2 3 0 :.0XcXdX.XoXAXHXGXJXFXVX(.G +.} G q G ",
"~.(.(.(.qXE.E.E.0X'.'.wX-.C L.<XbX,X,XaXaXzX,XbXOXQ.D : : # 3 #.^.tXuXG.lXoXeXqX_.5Xq.:.G Q | | G q ",
"`.(.E.E.E.U.7X^.Y.Y.0XE.D ] <XkX,X,X,X>X>XaX,X,X;X;X!.K > : # 4 k.!.fXH.pXOX~.>.*.*.*.+.7 < < | < O.",
"`.(.9XE.T.T.N.T.T.T.U.-.` ~.1XlXxX,X>X>X>X>X,X,X,X;X Xj.C < # 1 ' b.xXsX;XuXoXl.%.%.:.*.+.< # 7 q , ",
"W W.U.E.T.B.=.M.N.=.>.H h.~.n.F..XpXzXaX:X>X>X>X>X,X XP.] 1 : 1 %.l.lXsXfXuXuX!...H H A } | A G O.< ",
"5 E R.U.B.M.g.g.g.g.*.] ~.P.XX].c.v.G.:X,XaXaX,X-X@X}.I.h.C < < *.^.bXsXdXH.dXtXz.H A F G +.+.F E | ",
"7 7 *.,.=.M.a.M.g.g.g.^.XXn.n.n.V.F.G.iX-X-XfXuX&X+XF.P.u.C 4 < Q U.tXxX$XsXH.uXtXz. .+.H } G *.F | ",
"q 7 q } M.X.M.M.=...l./..XF.m.y.s.H.%XiXfXZ.D.G.{..X].P.h.` 1 : S J c.uXpX&X=XG.cXjXg.' +.| } +.O.F ",
"q q }  .=.X.g.X...L b.tXOX:X:X:X@X>X-X>XD.Z.Z.v.F.c.!.j.] S 5 : Q J Z |.sXdX&X*X%XlX/.&.*.O.O.F G o.",
"q N  .=.=. . . .g.g.!.OXxXxX>X>X>X=X-X@Xd.G.Z.F.|.n.j.[ ] S > ;.jXN.Z n.cXfX*XsXzXpXtX&.< , 7 # < 7 ",
"; # } *.=... . .a.C.|.uXzXzXaXzX>X,X,XS.Z.[.;Xi.y.z.u.L ;.D > jXnXSXlX.XdXsX,X=XsXxXtXQ.> , 7 0 q o.",
"; N F +.>.%. .=.N./.|.&XzXzX,X#X>XzXzXZ.x.{.dX*Xx.s.z.h.[ B > ^.vXSXmXsXuXsXzX:XaXcX;XXXP 7 0 0 0 x ",
"8 5.$.q.-.q.*.>.T.C..X*XaXiXaX@XG.;X;Xx.D.;X#XiX=XA.n.Q.] Q C D 0XvXmXcXdXuXxXuX XkXxX<X~.1 @ . O 0 ",
", < 7 O.+.:.B.=.l.!..X&XiX>X:X=X=XS.x.x.x.zXiXfX>X{.I.l.' D *.E.~.oXOXcXcX|.!.n.b.!.oXXX'.D +   . 8 ",
"6X6X6X6X6X7X7X7X7X].{.:X%X{. X}.+X+X[.F.G.sXfX-X:X}.b.[ V B AXAX`.h.j.tXvXXX[ h.u.] { L.R.L.+ @ # # ",
"3X3X3X3X6X4XyXgXyXF.*XiX{.[.].}. X+XF.G.*XfXfXJ.[.A.j.K B ;.jXAX-.U.l.hXP.h.] ' { ` ' W { 7._ 3.@.M ",
"3X3X3XC.C.C.C.4XC.V. X:X$XA.x.kXuX XF.A.G.iX-XH.A.n.u.J A W.T.q.#.+.} >.' ;.' Q ` T C a l _ 4.3.6.6.",
"gXgXgXgXnXnXnXnXjX|. X$X{.[.D.;XcXxXA.v.F.%X-XZ.v.y.u.J >.*.*.*.o.o.E o.W W R U ` T 4 5 Y ! @.5.$.5.",
"jXnXjX0XjX0X0X7XoX!..X%X@X#XS.S.2X2Xx.A.A.$X+Xv.y.a.] ;.-.#.o.o.o.o.E o.Q _ W U T U 4 4 j Y _ 8.5X5X",
"Y.L.U.L.>.>.;.' K c.|.%X@X#X#X2XS.D.D.D.{.;XA.p.p.f.{ { 7.7.$.$.@.@.@.@.@.4.#.U U C 4 9 I ~ / +.B.6X",
"7._ ! a k a j C j.!.F.&X=X,X,X#XH.S.2XS.G.F.n.y.P ' 6 3 ) 3.5.5.5.5.$.$.$.-.7.S 0 9 S j j ~ W Q ,.gX",
"p p u d s s i C L.|.F..X:X:XiX-X-X*XG.Z.Z.A.m.P ] 6 @ 3 k k m m g M 3.$.#.5.8.-.0 4 5 j T R W Q H 5X",
"p p y y d d a C ~.XX].}.$X:X,X>X&XJ.G.Z.d.V.L ' C @ 6 f k b v p = = t M 3.$.-.9.w.#.4 I T T W U H 9.",
"p y y y d p a C [ <X}.A.G.G.%X&X*XH.F.s.v.f.K ' : 3 a a i b v w % & % r m 4.5.8.q.-.I I R W W Q S W ",
"d t p d s p i C C j.oX$XH.G.Z.G.F.v.d.p.p.L ' C 6 j p h n v i & % % w % r c 3.@.) o.N j T W R W R I ",
"p p p p p i a a C V j.oX$X*XG.J.G.Z.x.m.z.k.{ 6 a 3 h x v m a * $ % e w e e c M N ) E I R R W W R j ",
"p p y u i i i a a C S P XX;X=XJ.#X{.}.].l.V 5 5 k a f l b n f = $ $ w w w % r c 3.@.N I I U U U T j ",
"p u s s s c v i s a j C V u.D.}.A.].!.u.V 1 a l k k a ! ! n m u = % % % w e r r m @.^ j I S S I I j ",
"d s s s c c c c f a j j S C C B > B B B 1 j l n v ! ! b ! M <.m & & % $ w e e y y <.<.z j 9 9 9 9 5 ",
"d s s f c s c c f l l k n k + + + @ 6 5 a l n l n l ~ ! ~ ( M <.t % % % % w e e r r m v j 9 5 9 9 9 ",
"d s s s i g v i f f m v b i @ @ o + = j x ! z z ~ ~ ~ ~ / ( ( m t & $ $ % w w e e r p m j j 9 9 9 9 ",
"s s v c g g k k n b v k m i - - - = @ z z z ^ z ~ ~ ( ~ ( ( ( b * $ $ $ $ % w w w w t 1.! j 9 9 9 9 ",
"s s c s c k v l b l z k m c d t t ; @ ! n ) n n 1.1.1.1.( _ / z = $ $ X $ % w w w % - ) R U S 9 9 9 ",
"s f s c v i k k l ^ z j n 1.1.m g - = n z z z / ~ 1.~ ( ( 2.( n - $ $ $ $ $ % $ $ $ = _ / R ` U I j ",
"s g c c c c k l l l b b k b ) 3.m = # l / / I / ~ ( / ( 2.2._ ! p * X $ % % & % % X @ ^ _ / R T S j ",
"u i h c c g g k l b v m k b Y l M h @ l z ! / Y ~ ~ ^ ) ( 1.1.M h = X X $ $ X $ $ X o h ) _ ^ ! x j ",
"X   X O o o o O o o . . . . o o o o   @ o o o O . . o @ o o o O o       X X X X       . . . O o . . ",
"                X                       X                   X             X     X                   ",
"                                                                                                    ",
"                                                                                                    "
};
