/* XPM */
static char *c5a51b1842e6403285cbd4060775f57aerAirOonAanLS7x0[] = {
/* columns rows colors chars-per-pixel */
"50 50 244 2 ",
"   c #6A4817",
".  c #78521A",
"X  c #654825",
"o  c #775628",
"O  c #695335",
"+  c #765A36",
"@  c #684A30",
"#  c #7D6335",
"$  c #7F6125",
"%  c #5E401F",
"&  c #715E48",
"*  c #7B6448",
"=  c #796655",
"-  c #97550C",
";  c #9A5911",
":  c #904C03",
">  c #A25D13",
",  c #9B6517",
"<  c #A76319",
"1  c #B36A1D",
"2  c #B2711E",
"3  c #865E2C",
"4  c #876739",
"5  c #9B7339",
"6  c #916B2C",
"7  c #AA6A24",
"8  c #B66E21",
"9  c #A9792C",
"0  c #B67729",
"q  c #A77C38",
"w  c #B57C31",
"e  c #C37A2B",
"r  c #C27D32",
"t  c #84694A",
"y  c #8C734B",
"u  c #8A7557",
"i  c #937B58",
"p  c #91764F",
"a  c #A77D45",
"s  c #877867",
"d  c #937D67",
"f  c #A98237",
"g  c #B3853B",
"h  c #B78839",
"j  c #B98C36",
"k  c #C7863A",
"l  c #CD8B39",
"z  c #9C8356",
"x  c #A88346",
"c  c #BB8C43",
"v  c #B58946",
"b  c #BC9348",
"n  c #A78956",
"m  c #B68E56",
"M  c #B89655",
"N  c #AE955C",
"B  c #99866A",
"V  c #988877",
"C  c #9F9176",
"Z  c #A48C66",
"A  c #AA936A",
"S  c #B79A69",
"D  c #A28C77",
"F  c #A89579",
"G  c #B69D76",
"H  c #BBA26A",
"J  c #BCA47A",
"K  c #C78A42",
"L  c #D28E45",
"P  c #C39B4C",
"I  c #C89849",
"U  c #D69748",
"Y  c #C59B52",
"T  c #C69B57",
"R  c #D89C53",
"E  c #E29C4B",
"W  c #D1A94E",
"Q  c #C6A15B",
"!  c #CCA45B",
"~  c #CBA657",
"^  c #D3A355",
"/  c #D4AB55",
"(  c #D4A45A",
")  c #D3AB5B",
"_  c #DBAC5C",
"`  c #DBA456",
"'  c #DAB25C",
"]  c #CAA449",
"[  c #E5A958",
"{  c #E0B15F",
"}  c #C59D61",
"|  c #C5A263",
" . c #CCA363",
".. c #CCAA6C",
"X. c #C8A769",
"o. c #D4AB63",
"O. c #D3AD6B",
"+. c #D8AB64",
"@. c #DBB264",
"#. c #D4B36C",
"$. c #DBB46C",
"%. c #DCBB6C",
"&. c #D7B865",
"*. c #CCAD72",
"=. c #C5A978",
"-. c #D4AD74",
";. c #CDB379",
":. c #D4B473",
">. c #DAB673",
",. c #DCBB74",
"<. c #D4B57B",
"1. c #DCBC7C",
"2. c #D8B77A",
"3. c #CEB66C",
"4. c #E6AC62",
"5. c #E3B46B",
"6. c #E4BB6E",
"7. c #E7B767",
"8. c #E3BC74",
"9. c #EBBC73",
"0. c #E4BD7B",
"q. c #E6B976",
"w. c #F4BC6D",
"e. c #DFC17C",
"r. c #DDC175",
"t. c #E6C26C",
"y. c #E3C374",
"u. c #E4C37C",
"i. c #EBC47C",
"p. c #ECC777",
"a. c #F4C679",
"s. c #9C9184",
"d. c #A89986",
"f. c #A79C93",
"g. c #B29D93",
"h. c #B8A788",
"j. c #B7A997",
"k. c #B2A89B",
"l. c #B7ADA2",
"z. c #BDB5A8",
"x. c #CAB487",
"c. c #DCBC83",
"v. c #D6BC88",
"b. c #C8B598",
"n. c #D2BC95",
"m. c #C6AD90",
"M. c #E2BF83",
"N. c #E0BF89",
"B. c #C2B4AB",
"V. c #C5BAAC",
"C. c #C7BAA5",
"Z. c #C5BBB2",
"A. c #C9BFB6",
"S. c #D2BCAD",
"D. c #BFC1B6",
"F. c #DDC183",
"G. c #DCC48B",
"H. c #DBC69A",
"J. c #E4C583",
"K. c #EBC583",
"L. c #E5C984",
"P. c #EACB84",
"I. c #E3C48B",
"U. c #E5CB8B",
"Y. c #EBCD8C",
"T. c #EBC688",
"R. c #F4CC85",
"E. c #EBD18D",
"W. c #E9D28B",
"Q. c #F2D38B",
"!. c #F9D489",
"~. c #E5CA92",
"^. c #EBCD92",
"/. c #E5CA98",
"(. c #F2CE92",
"). c #ECD293",
"_. c #ECD39A",
"`. c #EED99C",
"'. c #E9D395",
"]. c #F2D494",
"[. c #F4DA96",
"{. c #FCDA95",
"}. c #F2D59B",
"|. c #F4DB9C",
" X c #FADC9B",
".X c #F9D596",
"XX c #FCE29D",
"oX c #F9E19B",
"OX c #CCC3AA",
"+X c #DCCAA4",
"@X c #D6C7A9",
"#X c #CBC2B4",
"$X c #CBC3BA",
"%X c #CAC9BA",
"&X c #D5CBBC",
"*X c #D7C9B5",
"=X c #DAD2BD",
"-X c #DDD0AE",
";X c #E2CCA7",
":X c #ECD5A2",
">X c #EEDBA4",
",X c #EDDCAC",
"<X c #E5D4AA",
"1X c #F3DBA3",
"2X c #F2DCAB",
"3X c #F7DBA3",
"4X c #E9DCBD",
"5X c #E7D7B4",
"6X c #F2DDB6",
"7X c #F5E1A4",
"8X c #FBE2A4",
"9X c #FBE3AC",
"0X c #F6E3AA",
"qX c #F7E3B7",
"wX c #EFE0B5",
"eX c #CECBC4",
"rX c #D2CDC3",
"tX c #D5CDC7",
"yX c #CDD0C5",
"uX c #D5D3CB",
"iX c #DAD3CC",
"pX c #D9D5C5",
"aX c #DCDBD4",
"sX c #DDDCDA",
"dX c #D9D6D2",
"fX c #CED4D0",
"gX c #E3DCCC",
"hX c #E6DBC7",
"jX c #E3DDD4",
"kX c #E3DFD8",
"lX c #DEE2DB",
"zX c #EBE2CB",
"xX c #F3E5C8",
"cX c #E5E2D4",
"vX c #ECE5D4",
"bX c #E4E4DD",
"nX c #EAE5DB",
"mX c #EBE9DC",
"MX c #F3EAD4",
"NX c #E5E6E2",
"BX c #ECEBEB",
"VX c #E8E8E4",
"CX c #EEECEE",
"ZX c #E0E1E1",
/* pixels */
"(.K.y.t.p.a.[.[.!.p.r.3.A OXaXnXBXBXBXBXBXsXfXyXD.k.B B ;.3.r.r.:.#.:...<.<.X.X.*.1././.N.c.0.5.6 R ",
"T.:.3.' ' r.u.i.y.y.r.H h.%XcXNXVXBXCXBXBXlXlXlXfX%Xb.Z 4 n N N  .2.1.*.~.N.1.<.c.M.N.N.c.c.0.Y } q.",
"u.u.y.&.) ) +.7.' ' ~ N j.iXnXVXBXBXCXCXBXVXmXzXzXzX-Xn.h.A 4 # o + 4 5 S c.I.^.M.N./.~.N.Y.>.o.$.$.",
"1.y.y.r.r.o.W ' ' / M S OXpXbXVXBXCXCXCXNXcXzXzXwXwXqXqXqX,XH.G.m.S n p 4 N ~.G.v./.M.M.I.I.>.O.X.m ",
",.%.6.,.r.t.&.~ ] Y x h.*XcXNXBXVXVXlXlXcXzXwX>X9X1X1X0X9X:XqX2X9X,XH.n.x.Z p H c.2.M T >.q.:.N o o ",
") &.8.8.t.r.&./ M x B b.rXaXbXlXNXZXlXcXzX,X'.Q.). X7X`.7X0X1X7X>X1X6XqX;Xb.G y # o $ 6 3 3 o + u V ",
") +.@.9.t.' W ~ a t F B.rXuXlXlXlXbXcXxX,X'.u.!.oX|.`.0X7X>X1X|.).'.2X2X/.<X@Xb.h.A B u u u V f.k.B.",
") _ ) ~ P P b 6 + C j.Z.uXuXaXcXcXmXxXwX`.Q.Q.oX X X0X0X7X`.7X}. X)./.<X9XqX5X5XOXOXV.z.z.z.z.D.$XeX",
"/ I b h b f $ # B l.%XpXaXkXvXxXwX,X,X1XoX|.8X}.7X|.3X X|.|.).oX|.).1X0XqXwX2X<XhXgXdXtXtXyXeXyXtXaX",
"P b f 6 .   # B j.OX5XhXzXMXMX5X'.U.[.|.|.|.|.:X|.).|.).Y.].).[.].E.'.0X1X2X>X2X5XvXnXkXsXdXlXsXsXZX",
"v f .   o u C j.OX-X<X:X,X9X>X'.qX9XL.i.[.}.U.U.^.W.L.1.J.T.].Y.Y.].).}.).].].}.,XhXnXNXZXbXkXkXNXZX",
"    o y C d.b.OXOX/.G.'.oX`.W.oX9XqX|.$.O.0.M.0.>.y.,.,.0.J.J.F.^.).].T.E.Y.].Y.1X<XxXmXnXbXVXVXlXsX",
"+ = B d.j.S.OX@Xe.G.|.3X8XXX).7X9X3XY.,.~ o.q.q.) W ' 5.$.>.8.U.^._._.}.].].].]._.0X-XzXmXnXVXbXVXbX",
"s.h.b.V.V.&X-Xn.r.W. X8X3X X`.U.}.].L.&.P @.5.5.] 0 _ { 5.0.8.0.U._._.}._.].).[.)._.+XhXmXnXVXmXnXcX",
"z.Z.Z.$XtX5XH.U.`.|.'.3X3X X'.[.].J.J.P.$.@.7.[ U w ` ` 7.t.u.0.J.L.Y.Y.Y.U.Y.^.).c.H.+XgXnXNXnXxX5X",
"%X%XtXiXiX5Xx.Y.[.oX}.:X|.[.|.|.[.J.P.u.i./ I ` E L [ [ 4.( $.i.u.u.J.Y.P.K.L.^.]._.>XG.hXkXbXnXxX/.",
"uXuXdXdXhXH.2.i.Q.]._./.^.^.3X3X(.0.0.5.4.7.U 7 < ; E E l ; K 5.i.K.J.M.L.0.T.i.Y.^.^.v.5XkXZXjX6X/.",
"aXdXsXvXhXv.,.6.Y.).}._.].T.~.(.R.$.+.9.w.[ [ < < ; L E r : ; h c O.q.J.L.L.P.u.e.U.).x.*XiXkXgX<X/.",
"gXjXbXcXqX*.Q 8.Y.}.'.}.).[.|.T.2.q.U K l l l e l L U E r r 0 r 7 4.K.T.T.P.J.L.1.1.e.;.@XaXcXpXH._.",
"hXcXnXvX;X..0.i.T.~._.1XU.).U.U.K.q.0 < e 8 8 1 r w e 8 8 L R 7 8 4.9.0.Y.J.,.,.L.:.#.;.n.pXcX4Xv.Y.",
"*XgXnXvXH.=.Y.J.^.1X:X1X7X).E.U.T.5.0 0 l l e 1 ; k 8 8 8 l 7 < w R R ( #.,.P.J.>.r.y.e.b.=XhX5Xc.i.",
"n.5XvXgX+X=.2.L.U._.1X_._.E.L.Y.0.T 0 > l E l E 1 [ r > R R L L L k h +.8.y.8.8.Q.oXW.<.h.*X=X-X2.6.",
";.H.hXpX+XH <.0.T.(.^.I.I.Y.(.>.9.` r e [ [ 2 e r L 7 7 4.5.4.r w h ^ @.@.&.@.8.U.Y.P.:.h.-X=XG.>.&.",
"L.v.*XpX@XH X.>.J.M.N.^.Y.J.0.5.9.` l L [ E l 1 r > ; 7 h R K ; T o.T ~ ~ h ~ ..O.>.P.<.h.+X<X=.Q ] ",
"R.=.OXpX;XS S :.1.U.^._.}.Y.J.!.a.4.e e [ a.[ 1 e < < ; - - ; < $.J.$.~ Q ! O. .} :.>.:.x.n.n.} f l ",
"i.:.S.*X@Xm.<.e.J.L.).'.}.U.].P.{ 7.e 1 U w.[ < r r R R R a > K 0.1.0.1.O.|  .| }  .:.<.J n.c.:.b j ",
"^ T b.*X+Xm.=.3.,.1.L.E.~.J.).L.t.w.l 1 2 7.E k r 9.q.q.5.4.L K >.c.1.c.1.<...| *.>.@.,.x.v.*.&./ P ",
"U v n.S.S.x.n ,.>.>.,.L.U.'.Y.].R.7.7.l l t.w.L w w.M.9.q.q.R >.>.c.U.I.U.G.<.;.-.O.$...J =.3.) ) t.",
"[ 5 h.S.S.m.a | ,.,.e.L.}.8X3X3X{.!.a.7.p.p.a.I k w.` w.a.M.R.0.G.c.J.I.U.U.J.>.O. .O. .A H ..&.r.L.",
"U 7 =.S.S.m.x x #.>.1.L.}._.2X}.a.%.6.9.7.!.a.7.7.w.l 0 I $.M.c.c.c.F.1.2.:.:.@.! Y v X.Z J M P.oXW.",
"[ 5 S j.l.b.a 6 Q :.M.I.).^.}. X.X>.5.a.a.a.w.!.!.U k k T 5.^.^.v.c.....#.) P f b o.0.X.A J X.i.L.F.",
"4.w Z g.C.b.M j v O.1.<.N.~.I.].].(.!.9.l L Y 5.a.@.R w.R.T.^.3X>X'.<.#.Q P ] I j $.J.n F j.x.*.*.*.",
"k a i g.B.b.-.q f | *.G.c.c.I.U.E.].{.9.( ` R q.!.R..X.X|.).'.|.:X_._.'.L.L.p./ ' 5.*.B h.b.G G.c.<.",
"K y d g.B.b.-.c b Q :.<.c.M.J.Y.E.Y.].!.i.i.a.K. X(.].3X1X'.U.'._./.`.3X|.P.p.' 7.Q A B j.C.h.n.v.-.",
"A 4 d j.V.b...M P Q X.*.<.0.1.J.u.2.J.u.T.T..X.X.X}.}.^.|.`.'.`.`._.}.).^.0.) W / y.i d.Z.&Xm.J =.*.",
"y * d l.Z.C.x.M X.b b X.O. .} $.,.$.8.K.0.U.J.^.}.^.J.^.G.W.U.).[.W.Q.,.>.o.h t.a.N B z.$X#XC.F =.X.",
"@ s f.l.$XeXb.N f f g c c q Y ( ~ @.o.#.:.L.L.Y.U.Y.L.L.E.P.L.P.p.y.@.Y b b o.Q.L.p j.#XrX&X%Xh.S b ",
"& s.f.Z.tXeXS.S 5 , 9 9 w g f K b Y Q i.$.,.Y.U.L.Y.K.P.r.p.$.~ / / ] ' q.~ i. X=.F C.tXyXyX%XC.A m ",
"= s.l.$XtX$X$Xb.b g v h j j g v P Y ) #.>.| c.c.c.1.c.M.K.9.q._ W ] W @._ ' ,.F.A j.&XtXaXuXrX%Xh.Z ",
"s.f.D.D.eXeX$Xb.S Q  .! P f q v Q Q Q ..O.,.-.M.c.c.2.2.>.q.5.` / ] / 6.P W r.F.A C.eXuXsXaXdXrXZ.k.",
"f.z.$XA.eXeX$XV.h.B p x v x x T ..} } } }  .+.} T ..-.o.O.+.o.( ( P $.) j / r.;.G Z.rXaXsXsXaXuX&XA.",
"z.$XrXrXtXeX%X$Xz.G B # 4 x m M } T T m v T T  .>.( T I T I ! +.$.o.) ^ / y.W.n h.%XuXlXNXbXkXdXuXrX",
"D.eXrXtXtXdXpX&X$Xj.F z + X o a q a v q a v I I K c 9 f g c b I ^ ^ ^ ) p.K.z Z OXpXlXbXnXVXNXkXaXuX",
"%XrX=X=X&XiXpXpX$XV.k.C d t @ o q x x q v a q a 9 9 0 j 9 g h h g K g c 5 3 i h.@X=XzXvXMXvXvXcXzXpX",
"-XOX-X-X5X5X4X=X=XOXOXj.d.V d t + o + 4 4 4 x v c h j h r h v a c m a   o z h.H.<X4XxXqXxXxXqX9X6X<X",
"wX,X,X,X0X0X,X<X;X+X@Xb.m.j.d.D i t + O X X o 3 3 5 v v 5 y 6 3 .     4 n J H.:X2X0X0X8X3X2X9X9X7X:X",
"8X9X9XoXoX7X9X9X3X3X'.H.C.C.m.g.F D d u t * & + @ X X X X % @ @ @ t s A v.W.[.Q..X{.{.oXoXoX|.8X8XoX",
"Q.{.oXoXW.).oXXX{.[.[.`./.H.S.C.B.j.f.d.C V d s u & = = = = s s d D d.x.G.y.6.p.a.!.Q.!.Q.[.).oX`.[.",
"t.p.!.XXoXu.p.[.oXQ.oXQ.).H.@X-X#X#XV.z.l.k.f.d.s.V V s.s.f.f.l.l.j.n.L.u.t.t.t.p.t.a.p.Q.W.).[.[.|.",
"t.{ t.!.{.!.P.p.Q.).R.Q.P.[.H.*X&X%X$X$XA.Z.z.l.l.k.f.k.l.z.D.z.V.S.U.!.p.p.p.t.t.t.p.p.Q.Q.oXoXoX7X"
};
