/* XPM */
static char *_8e53f95d5ff4edf9b8e5156460fb32fV7eYIPiJKrY5FDVw[] = {
/* columns rows colors chars-per-pixel */
"50 50 206 2 ",
"   c #05040B",
".  c #0A060C",
"X  c #0C090E",
"o  c #040207",
"O  c #140000",
"+  c #130D0E",
"@  c #1B0704",
"#  c #1B130D",
"$  c #16110E",
"%  c #0C0B12",
"&  c #0C0E18",
"*  c #070812",
"=  c #130E12",
"-  c #190F13",
";  c #0F1217",
":  c #151114",
">  c #1C1413",
",  c #1D1915",
"<  c #15141C",
"1  c #1A161C",
"2  c #1D1A1C",
"3  c #211614",
"4  c #221B16",
"5  c #291A17",
"6  c #21171C",
"7  c #231D1C",
"8  c #291E1A",
"9  c #321A15",
"0  c #3A1E1A",
"q  c #260A07",
"w  c #292017",
"e  c #25211D",
"r  c #2A211C",
"t  c #272016",
"y  c #35241C",
"u  c #161420",
"i  c #1A1621",
"p  c #1C1A21",
"a  c #161920",
"s  c #201621",
"d  c #221D22",
"f  c #281F22",
"g  c #1E2226",
"h  c #242222",
"j  c #2A2422",
"k  c #26252B",
"l  c #292728",
"z  c #2B292C",
"x  c #292826",
"c  c #332A24",
"v  c #3B2B23",
"b  c #332D2C",
"n  c #3A2824",
"m  c #3F3229",
"M  c #2D2C32",
"N  c #272C30",
"B  c #312F33",
"V  c #2E313A",
"C  c #343234",
"Z  c #3B3432",
"A  c #35343B",
"S  c #38373B",
"D  c #3C3A3C",
"F  c #422624",
"G  c #422B25",
"H  c #412E28",
"J  c #43342C",
"K  c #4B342E",
"L  c #49362B",
"P  c #473630",
"I  c #4C3B33",
"U  c #423D3D",
"Y  c #533B35",
"T  c #583E39",
"R  c #523B35",
"E  c #4D4339",
"W  c #54423A",
"Q  c #5A443B",
"!  c #584037",
"~  c #61453F",
"^  c #3D3C42",
"/  c #363441",
"(  c #413F44",
")  c #3C4043",
"_  c #444244",
"`  c #494545",
"'  c #45454B",
"]  c #49464B",
"[  c #4C4B4E",
"{  c #494949",
"}  c #534D4D",
"|  c #5A4743",
" . c #58524F",
".. c #4B4A50",
"X. c #494954",
"o. c #514F53",
"O. c #4F525B",
"+. c #545255",
"@. c #5A5757",
"#. c #55545A",
"$. c #59575A",
"%. c #5D5B5E",
"&. c #565A5D",
"*. c #644A43",
"=. c #654E4B",
"-. c #635B5A",
";. c #6A5652",
":. c #745E5A",
">. c #745B55",
",. c #79605C",
"<. c #5C5B62",
"1. c #5F5F69",
"2. c #615E63",
"3. c #636165",
"4. c #65646C",
"5. c #69666D",
"6. c #6B6A6C",
"7. c #6B6666",
"8. c #736966",
"9. c #74706F",
"0. c #6C6D73",
"q. c #686A75",
"w. c #716F73",
"e. c #6F727B",
"r. c #747275",
"t. c #75747A",
"y. c #79777B",
"u. c #7B7A7D",
"i. c #797878",
"p. c #826963",
"a. c #876C69",
"s. c #88726C",
"d. c #867976",
"f. c #927C77",
"g. c #94837C",
"h. c #7D7C81",
"j. c #777B84",
"k. c #807F85",
"l. c #7D8085",
"z. c #7E828D",
"x. c #848284",
"c. c #85848A",
"v. c #8C898D",
"b. c #8F8784",
"n. c #9A8B85",
"m. c #92918F",
"M. c #8E8D93",
"N. c #858893",
"B. c #918F94",
"V. c #8E939A",
"C. c #929294",
"Z. c #93959A",
"A. c #9A9A9D",
"S. c #98989A",
"D. c #A38A85",
"F. c #A7928C",
"G. c #AD9A93",
"H. c #A39B95",
"J. c #B59E99",
"K. c #B59A95",
"L. c #A1A09E",
"P. c #AAA19C",
"I. c #BFA29C",
"U. c #9C9CA2",
"Y. c #A4A2A6",
"T. c #A4A3AA",
"R. c #ABAAAC",
"E. c #A7A9AE",
"W. c #B4ADA9",
"Q. c #B1B0AE",
"!. c #ABABB3",
"~. c #A4ABB5",
"^. c #B4B3B4",
"/. c #B5B4BB",
"(. c #BCBBBC",
"). c #BBB6BC",
"_. c #AAB1B9",
"`. c #C7AEA8",
"'. c #C6BAB6",
"]. c #D6BCB8",
"[. c #C6C1BB",
"{. c #AFB6C0",
"}. c #BFBCC2",
"|. c #B8BCC5",
" X c #C4C2C5",
".X c #C8C5C3",
"XX c #CAC9CD",
"oX c #C3C2C9",
"OX c #DEC5C0",
"+X c #CBCBD2",
"@X c #D0CED4",
"#X c #D6D6DB",
"$X c #DBDADD",
"%X c #D6D4D9",
"&X c #ECD3CE",
"*X c #F1D9D3",
"=X c #ECD9D2",
"-X c #D7D7E1",
";X c #DBDBE3",
":X c #E2E1E5",
">X c #EAE9EA",
",X c #F0F0EE",
"<X c #F8F6F9",
"1X c #FEFDFC",
"2X c #F5F3F5",
"3X c #EEEDF5",
/* pixels */
"u u u u < ; & ; < = < < ; 1 < < V / i = 1 1 - - 1 - < 1 6 1 S k ^.d - : > 3 - - 3 > > - - - - - = % ",
"u u & u < ; < < - < ; < < < < 1 O.V M u p 1 1 6 6 6 2 2 1 1 ( = y.c.1 1 > > + 3 - - : : 6 - - - - = ",
"u u < < < < < < < : < 1 < i < k <.V ( s p 2 6 , 6 2 2 6 2 2 ] 1 1 @X( 2 > 6 - 3 > - 2 > 3 - - 6 = = ",
"u u < u < < < < < < < 1 < i i / <.k <.M 2 2 7 2 4 4 6 4 1 1 C A * 4.'.6 6 > 4 - 3 3 > 2 1 6 3 1 1 = ",
"i i i < < a < < 1 < i i 1 p a X.2.i 1.) p p d 7 7 4 , 2 2 2 d +.% < @X-.2 6 > 4 6 3 3 6 6 6 6 6 1 - ",
"i u u u < < a < < 1 1 i p i a <.1.& 1.<.k p 2 2 2 2 1 2 2 2 d 6.% * t. X7 e 6 6 6 3 4 6 7 7 6 6 1 - ",
"u u i < u < < u < < 1 i i i a 1.q.* 1.q./ a p 2 2 2 2 2 : < 2 j.u & 1 $X3.6 6 , 4 4 3 4 6 6 6 6 2 - ",
"u s i < u u a < i 1 i a a 1 a 4.q.& ) j.<.p p 1 1 < 2 < 2 2 < k.M * % M.}.7 4 , 4 > 6 , 3 6 6 6 2 : ",
"s u u s i u u a a u u a < a p t.e.& ^ c.c.d d i C ' ...._ A M U.k * & A >X..d 2 , 4 3 3 6 6 6 6 1 1 ",
"s u s u a u u a u < a a 2 < g u.j.& N !.U.5.w.v.h.y.y.c.x.r.t.M.;   % % /.Y.2 6 , , > 4 > 1 6 6 > > ",
"s u u u i u u i < p 1 p 2 p p M.M.< z $X}.S.r.+.+.+.} _ _ _ A =   %   * 2.:X/ 1 2 , > 6 > 1 1 < > < ",
"u s i u i a a i a < p a p a N Y. X(.,X:XA.R.@.C l C ` D h :   .   .   & i +XZ.p 1 > 2 3 > 1 1 1 < : ",
"s s i i p i i p i d i p h a A XX,X1X>XL.S.d.b 2 = > < = o . . . . = * o & Z.;XM 2 7 2 > 2 1 1 2 1 1 ",
"u s s i i p p p p p p i p d w.1X1X,XQ.7.9.U : . . . . .   . % X < z h & & O.-Xj.p 2 6 2 d 2 1 1 1 < ",
"s i i i p i p i d d p k h k #X1X1X.Xg._ ( d + . . . . .   .   % d 4./.~.V a oXoXx < 2 7 2 2 < 2 2 < ",
"s i s s p p g i s d s d k $.<X<X%XC.+.B z X - X X X . = * % %   * h 0.+X-X^ N.+X' k 2 e 2 7 p < 2 < ",
"i i i p p p p d p p p d d S.>X;X^.0.) M g < % % . . . X X X = % X + 2 3./.!.e.{.j.g 2 2 e 2 2 2 a , ",
"p i p p p p p p p p h k d @X%X).U.4.^ N p < : : ; % = X + X + + + + ; h 5.!.N.{.V.g h 2 , e 7 e , , ",
"i i a p a p p p h k a p o.$X+XR.t.1.) k p p p < % X + X + + + . $ X : : B j.z.~._.g h 2 , 2 2 g 2 2 ",
"i i i i i i p p p a k d y.+X+XT.<.o.X.N h M M : : = : + + + + + : + > : p ' j.V.|.N e 2 t e 2 e 2 2 ",
"i i u i i p 2 a p 2 a h A.Y.}./.O.A ] M h ' z : : = $ : > + $ > > > $ + , N e.l./.) e 2 e t e e e , ",
"i i u i p i i 2 p p p p U.0.Y.oXq.d / z M +.p : : $ > 6 6 > : $ # , # , , a { 0.~.&.g 2 e 2 e e e g ",
"i i i i a a p a 1 a p N M.<.5./.C.k M M ( +.2 > 2 , 7 e h e > # # # # , , 2 N &.A.6.2 e t 2 e g e 2 ",
"i a < u < i 2 p p g 2 p 5.<.5.c.!.S k C ] _ 2 > 7 7 e 2 4 4 , , , # , , , a g { S.e.g e , e e 2 e e ",
"i i i i a i 2 p p p g 2 3.<.$.5.v.( z C B Z 7 6 f 4 6 r e e 4 4 4 # # 4 # t C &.A.t.h j 4 e e 2 e 2 ",
"i u 1 i a p p a p p 1 p &.+.2.+.+.( z z x 7 2 6 4 j b m e j 4 e # t # 4 c  .[ { S.x.2 h e e h h e e ",
"i i u i p p 2 a p 2 2 h ( ^ 2.C D A z ` : : > # 7  .} -.b # e > 4 # # # t t a x j.l.p e h e e j e 2 ",
"a i u a a a p p p p a 2 D M M C $.9.` @.+ > + > > > 4 5 > 4 # , , t # , t t 2 x 3.h.h e e e 2 e e , ",
"i i i p i a p p p p 2 2 +.D 2 @.%.` x.3.> + > # # # > # # > , > : , , t t t e C w.h.e e 4 j e h e 2 ",
"i p i a 2 i p p 2 p g 2 6.3.u.x.6.u.W. .> > # # @ 3 > 3 # , e 4 t e t , , t N _ l.x.h e 8 x 7 e e t ",
"p i i i p a p d p 2 h p r.^.(. XL.(..XE > > + 3 > 3 > 7 4 j e 4 , , t t t , x ) u.y.h h e e 2 e e e ",
"g i i a p 2 g p g 2 2 7 r.L.A.Y.Q. X[.z # 3 3 > 3 > 4 8 8 e e j x t e , t e e C t.y.d h r e e g e e ",
"i i p i g 2 2 2 2 2 2 g +.C.0.x.W..XP.4 6 3 - 3 3 5 4 e 4 r x r j r 8 4 t 4 e b <.4.k e e 7 j 7 e e ",
"i i p p 2 2 2 , 2 2 2 g C 5.y.C.Y.[.b.8 > 8 7 5 5 5 t t r r 4 r h r t t r 4 h C 7.2.h h e e e j g e ",
"i s p d 2 2 2 2 2 , h e 6 [ i.b.F.8.;.K v H P G H I E E I J t y 8 r r t e t 7 D 5.2.d h e j e e e e ",
"k i i d g e 2 2 2 e e 2 h D i.b.'.K.D.F.f.s.*.R G y I W W E y w 7 r t t e r 7 D 2.h.h h h e j j x g ",
"i i p d i s 7 d 2 h 7 e r j i.P.*XK.F.D.a.>.;.~ K G G L ~ Y H w r r 8 w t r 4 ` ] Z.A x x r j j e e ",
"i i s i d d 7 d 7 7 e 4 r e d.W.&XI.g.~ 0 9 9 0 Y Y L G ! ! E y r e 8 t t 4 e U S v.i.x z x r j e e ",
"s i d d d 2 d 7 7 7 e e r y 8.F.*X`.f.q @ O @ @ q F Y Y Y Y L v 8 8 t t t e r b C r.^.z x c x x x g ",
"i s s d 7 d 7 7 7 h e e r t @.n.&X].p.@ O @ G F F 0 F Y Y ! J y r 8 t 8 t e e , e 3. X&.z x x x r g ",
"p 2 2 d d 7 h 7 7 7 f 8 8 f n d.].].a.T =.;.:.=.T K ! I W R I c r e t e t e e 2 2 o.R.C.z z j x h e ",
"6 7 6 7 7 7 7 7 8 d 7 f f f f | g.OXK.J.F.f.a.,.=.! L L R W J w 4 8 4 e t t , , 2 U U.^.D l z j x e ",
"d 2 6 7 7 e e h 7 h f f f f h c :.[.J.F.D.f.s.>.~ ! I I W Q m r 8 4 4 t t , t , , C Y.!.j.N x j j e ",
"s d 2 7 7 7 4 7 d 7 8 f f f j 8 W G.`.G.F.g.p.>.~ ~ Q W Q W y 4 8 t t e t , , t 2 2 A.E. XM l l x h ",
"s d 6 6 2 7 4 7 r d d f f f j j U g.'.P.G.D.p.=.~ ~ Q Q ! v 8 5 4 8 8 4 t , 4 , , p c.T.@Xt.M l j 2 ",
"s 6 d 6 d 7 e 7 4 7 8 d f f f j b n.:.n.F.g.p.*.Y ! W m n 8 5 8 8 4 8 8 e 4 , , , 2 q.T.+X#XB k h h ",
"s s i d 2 7 7 7 4 h 7 7 f f f f x m.8.8.d.d.>.Q L E E r 5 d 8 f 7 8 8 8 t , , , : 2 ] U.!.3XM.z x h ",
"s s s 6 7 7 7 4 4 h 7 h f d j j j C.k.7.8.-. .W I m r t 8 8 f d 7 8 8 7 t , , , , 2 k j.k. X2X<.k h ",
"6 i 6 7 6 7 7 7 d 8 f f f 7 e h j C.v.r.$.} ` m c r 8 r f j 8 8 4 r e 4 5 3 4 , , , > b S 2.+X>X+.g ",
"6 6 2 6 7 7 7 8 8 f f 7 h r e r } R.M.r.<.%.@.` Z c r j 8 8 8 8 4 8 r 4 4 4 3 3 4 # 6 , 1 2 {  X:X{ "
};
