/* XPM */
static char *_472f56f0e7c4a06c1662ade686915e68i36n1imNPi1RuP5[] = {
/* columns rows colors chars-per-pixel */
"50 50 243 2 ",
"   c #190C00",
".  c #191802",
"X  c #1D1D12",
"o  c #290B00",
"O  c #251601",
"+  c #381901",
"@  c #201E12",
"#  c #1D2409",
"$  c #252A09",
"%  c #2B340A",
"&  c #282815",
"*  c #342C1A",
"=  c #2C3415",
"-  c #343C13",
";  c #333B1B",
":  c #353917",
">  c #383408",
",  c #363827",
"<  c #3D3E36",
"1  c #353326",
"2  c #4A0900",
"3  c #4A1B01",
"4  c #5B1700",
"5  c #661900",
"6  c #751B00",
"7  c #472405",
"8  c #53330D",
"9  c #672201",
"0  c #762600",
"q  c #793607",
"w  c #6E3810",
"e  c #4C3C2A",
"r  c #3B441A",
"t  c #36410E",
"y  c #3C4223",
"u  c #3F4529",
"i  c #3E4239",
"p  c #464819",
"a  c #47541A",
"s  c #53561B",
"d  c #4A510E",
"f  c #774C17",
"g  c #464926",
"h  c #4C5627",
"j  c #565928",
"k  c #474737",
"l  c #4D5636",
"z  c #565B35",
"x  c #5A462F",
"c  c #76542B",
"v  c #6D502C",
"b  c #58652A",
"n  c #5A6336",
"m  c #546928",
"M  c #656829",
"N  c #666937",
"B  c #6D7237",
"V  c #75783C",
"C  c #736635",
"Z  c #55651E",
"A  c #3F4448",
"S  c #4A4848",
"D  c #534C47",
"F  c #575648",
"G  c #585755",
"H  c #4E524D",
"J  c #625B55",
"K  c #675B46",
"L  c #686849",
"P  c #7A6649",
"I  c #6D7441",
"U  c #757746",
"Y  c #696559",
"T  c #776B56",
"R  c #767459",
"E  c #6A6B64",
"W  c #746F6B",
"Q  c #787768",
"!  c #7A7B74",
"~  c #777877",
"^  c #6E716B",
"/  c #61625B",
"(  c #8B2C00",
")  c #883601",
"_  c #983900",
"`  c #8C3E15",
"'  c #A43F04",
"]  c #884206",
"[  c #9A4303",
"{  c #88471B",
"}  c #9A4B16",
"|  c #92580F",
" . c #A84605",
".. c #AD5508",
"X. c #B55609",
"o. c #A95718",
"O. c #B95916",
"+. c #AE4C13",
"@. c #BC650E",
"#. c #AA631B",
"$. c #BA6417",
"%. c #B9711F",
"&. c #895823",
"*. c #9B5623",
"=. c #8B5028",
"-. c #A95A22",
";. c #B85923",
":. c #966B33",
">. c #B86625",
",. c #B06C2F",
"<. c #C15D11",
"1. c #CC6C13",
"2. c #C6681A",
"3. c #D26E1A",
"4. c #CA741B",
"5. c #D5771A",
"6. c #C8650F",
"7. c #C76A24",
"8. c #CB7728",
"9. c #D47C23",
"0. c #D67929",
"q. c #C57836",
"w. c #D87C32",
"e. c #C86A2D",
"r. c #E67F22",
"t. c #977547",
"y. c #86704E",
"u. c #AF7A49",
"i. c #857B67",
"p. c #837C76",
"a. c #C47C41",
"s. c #7C834C",
"d. c #7E8376",
"f. c #A8843C",
"g. c #D6861F",
"h. c #DC8424",
"j. c #D8862A",
"k. c #D98636",
"l. c #D18C34",
"z. c #E38B2C",
"x. c #E48628",
"c. c #E3932D",
"v. c #EA932D",
"b. c #E58B35",
"n. c #E59433",
"m. c #EA9333",
"M. c #EC9B34",
"N. c #EC9B3C",
"B. c #E7953A",
"V. c #F39D3B",
"C. c #F49937",
"Z. c #F4962D",
"A. c #EDA23E",
"S. c #E7A23B",
"D. c #F3A33D",
"F. c #F8A43B",
"G. c #85855B",
"H. c #908A56",
"J. c #AE8850",
"K. c #88846A",
"L. c #848374",
"P. c #89887A",
"I. c #938878",
"U. c #989678",
"Y. c #948D6A",
"T. c #B5986A",
"R. c #A5936A",
"E. c #B1A77B",
"W. c #C88C47",
"Q. c #D99947",
"!. c #CE9D5B",
"~. c #CC914A",
"^. c #EA9945",
"/. c #F59C44",
"(. c #E38D40",
"). c #D7A359",
"_. c #EDA343",
"`. c #EAA848",
"'. c #F4A443",
"]. c #FBA443",
"[. c #F4AB45",
"{. c #FBAB43",
"}. c #F3AB4A",
"|. c #FBAD4B",
" X c #F5A54A",
".X c #F6B44B",
"XX c #FDB34D",
"oX c #FEBA4D",
"OX c #FEB146",
"+X c #E8AB57",
"@X c #F8AB52",
"#X c #F6B453",
"$X c #FDB453",
"%X c #FEBB54",
"&X c #FEBC5A",
"*X c #F7B75B",
"=X c #EDB454",
"-X c #C59664",
";X c #D4AA6D",
":X c #FDBD63",
">X c #F6B960",
",X c #EAB065",
"<X c #FDC25D",
"1X c #F7C05B",
"2X c #FEC363",
"3X c #FCC46A",
"4X c #FDC969",
"5X c #FECA72",
"6X c #FFD177",
"7X c #7A7C81",
"8X c #7D8184",
"9X c #7E828B",
"0X c #8A8B84",
"qX c #868A8D",
"wX c #8B8C8D",
"eX c #848687",
"rX c #938A83",
"tX c #969589",
"yX c #878A92",
"uX c #8A8D92",
"iX c #858793",
"pX c #8E9194",
"aX c #8E9398",
"sX c #939395",
"dX c #95959B",
"fX c #989B99",
"gX c #8C908C",
"hX c #A89C89",
"jX c #A39B91",
"kX c #9DA297",
"lX c #A9A48B",
"zX c #A7A498",
"xX c #B5AD95",
"cX c #989EA1",
"vX c #9DA4A5",
"bX c #B0B0A6",
"nX c #C7AC8B",
"mX c #BFC2B9",
"MX c #FFDB86",
"NX c #D0C6B2",
"BX c #E7D7BD",
"VX c #FFF1D7",
"CX c #F9F6EF",
/* pixels */
"; y r t & # $ - h h h a m Z s.s > e x n m B B N t u $ $ = . $ p j 8 - N z s : j z p h g : - a N s.n ",
"# = u n l % % h r a r m m d j N T K.g z B s s j % # - - & % g z s Z s B h 8 p g N C h p a L N N j h ",
"# y n h n b p - - $ - - t t a g Y P.k L z - t p r % r t % $ > s M H.V M p j j s N V C N U s.N s a N ",
"; h r $ t r n L h % # g y - g u , < , k , % N p j p t t h N j V B V M B s U C j N V M U G.H.j a a N ",
"l y = # # ; u h : = # & & y * ; i k A , y r z y.I b t a B H.B Z Z M M V C V V M B M N U U N M h p n ",
"% # = $ # = $ $ % $ . X & ; * 1 F kXG A i l h h z I m Z M B M d s b M V V U I z U U L s.K.U d.U L R ",
"$ y ; r ; # $ % r - # & u # , F bXCX^ A i H n m j j I I N B V s.U R H.U.U.U.U.U.tXzXI.tXtXL.L.tXfXtX",
"h g = = & & r y g r = u u X k G I.bX/ / H A F y l K.U.U.Y.Y.U.Y.U.K.P.tXL.! ! Q Q p.~ ! d.~ ~ eXkX0X",
"* 1 X & = - ; # - % h n l , , eXmXCXwXG G S < k k Q i.hXT T L.L.d.Q L.fXtX! ~ ! ^ ! ^ ~ ~ ~ ~ qXgXqX",
"& & # & , = , & , l L L , S G d.bXCXrXD G S H E Q E Q L.R L.Y L.! ^ d.sXeX~ ~ ~ ~ ~ ! ! 7X7X7XiXeXeX",
"& X X X = l Y F E d.d.d.H u k K p.i.U.i.Y T E ! Q J E L.P.tXQ P.0Xd.7X8X7X7XeX7X8X8X8X8X8X9X9X9XeXeX",
"@ & 1 S Q Q P.P.d.0Xd.d.p.P.xXi.p.VXVXnXhXY L Y i l W L.P.P.L.P.eX7X~ iXqXqXeXyXyXyXqXyXqXwXiXyXyXqX",
"H E E K.xXT Q L.0XP.8XP.L.K.zXI.y.BXBXI.i.J k & k J F P.P.d.L.jXsXeX7XyXeXqXqXqXyXiXyXyXqXqXyXyXyXuX",
"^ ~ ! K.lXlXY R P.d.Q Q R F x P R.t.f v D 7 @ 1 R I.Y L.L.lXrXrXuXfXiXiXiXuXuXqXyXyXyXuXuXyXuXaXaXdX",
"eX0X0X0XQ I.zXJ d.P.P.d.R v v t.!.,X+XW.t.x e S Y bXi.i.p.I.I.tXfXvXyXyXwXqXqXuXuXuXuXuXuXwXuXuXaXdX",
"wX0XeX0X^ rXxXjXzXtXd.s.Q x C ,X>X#X3X:X).u.x v i.U.I.i.K.i.i.P.tXvXpXpXpXpXsXpXsXsXsXsXpXpXaXaXaXdX",
"0X0XsXsXtXfXjXbXzXI.L.tXbXY.Q.S.`.&X2X4X=Xl.f.:.t.y.K.T T i.U.K.W sX0XwXpXpXdXsXsXdXdXdXfXaXfXdXdXdX",
"gX0XsXuXwXmXzXzXjXI.jXNXNX;X1XF..X*X5X6X.Xc.l.,X!.J.:.y.t.y.R.i.E rXG F G E W iXdXdXcXjXfXfXsXcXcXdX",
"0XuXqXqXgXvXkXzXtXF I.lXT.).1X1X4X6X4X4XD.g.4.+X3X3X+XW.f.&.;XY.Y p.e < i S S D H / iXdXaXfXfXcXvXcX",
"0XuXuXwXgXkXvXzXzXP R U.J.l..XoX4X=X`._.4...%.$X4X1X.X}.`.Q.,XT.P y.e e e 1 e S F G S E dXcXcXcXvXvX",
"pXsXsXsXsXzXfXtXR.y.P R.J.8.S.F.<XD.n.9.O. .@.{.1X1XF.D.%XS.l.~.:.u.W.u.=.x * 1 k F E G ^ cXjXvXvXvX",
"dXfXsXsXwXrXrXi.I.i.R J.J.l.c.OX1XF.B...( ) 2.b.v.OXF.M.[.S.g.c.8.^.^.^.W.:.c v v v P T K p.xXhXjXlX",
"fXsXtXL.E J K.Q E.R.y.:.,.k.'.%XF.F.g._ 6 6 O.b.g.x.F.oX1X[.M.M.1. XXXA.k.(.Q.+X).Q.u.:.=.u.-X;X).;X",
"kXfXW J D S T U.E.R.H.:.%.b.|.%XF.c.8.) 5 5 ) j.5.5.Z.1X4X#XF.F.4.h.{.XX{.|.oX&XF.N.(.q.~.,X*X:X@X`.",
"fXE J D D < D i.R.R.T.&.l.B.}._.S..X.XS.#.3 9 } 1.5.c.1X4X4XoXF.8.4.{.OXD.'.$X3XXX/.m.w.k. X|.XX|.z.",
"d.Y p.D S D k P E.T.;X:.k.z.c.A.1X#X.XS.l.] ] q 6.Z.F.<X4X<XoXM.8.@.XX{.M.m.'.2X$X|.C.r.b./.V.].].z.",
"^ G / S < e x v R.E.E.f.l.5.g.A..X#X`.=X+X`.l.j.5.Z.F.<XF.M.F.g.2.O.m.@XV.C.m. X$X].x.r.0.r.j.b. Xj.",
"W E 7XJ D e e L E.d d &.k.4.g.M.`.3X2X<X4X=XS..XF.Z.F.M.h.x.x.3.X.2.9.b.].|.@XN.].].V.r.1.2.4.4.j.$.",
"p.J p.y.v c f R.H.B d f 8.5.v..X5X5X:X6XMX3X1X.XF.Z.Z.v.v.x.3.<.<.b.7.9.r.@X/./.m.m.C.Z.x.h.2.$.>.#.",
"tXK C R.-X!.!.f.f.M M f 8.4.M.<X3X+X+X5XMXMX4X=XF.v.x.9.z.j.X.<.w.w.+.8.0.w.r.w.w.5.3.3.5.8.$.%.q.| ",
"hXy.~.+X>X=X=XS.~.:.&.d 8.6.M.D.}.[.&X2X4X=Xl.c.M.h.3. .2.7.O.' e.e.5 ` +.+.O.e.<.;.3.' _ ..2.k.Q.#.",
"-X-X`.|.#X<XoXoXn.S.f.| l.1.x.j.n.S.c.A..XQ.j.8.g.4.O.+.X.;.;.( +.6 o 2 5 ' ( ' ' <.<.' k.@X X&X:X=X",
"-XW.^.oX1X1XOXOXD.j.%.%.b.6.3.5.r.0.r.m.A.`.n.k.9.O. . .O.q.) ( o._ f #.B. Xx.X.( ' _ w. X$X&X&X2X2X",
"(.q.M.$XoX.XF.Z.].j.2.o.j.9.2.3.2.6.6.1.j.c.j.2.$. .' ;.O._ 0 ~.*X X.XS.F.F.C.m.w.<.<./.@X>X&X&X1X2X",
"9.h.N.%X[..XD.x.3.2. .7.X.2.2.X.+.'  .X.@.@.$...} _ ;.+.( ) l.+X}..X$XD.F.Z.Z.V.C.C.3.w.[.=X*X4X%X.X",
"Z.h.M.'.1X[.M.g._ [ 7.w.<. .' <.<.<.+.+.%.7.#.-.} +.} ( o.@X:X<X%XD.D.M.Z.Z.C.F.z.C.6.r.}.*X3X6X%XA.",
"v.F.{.{.|.$XM.5.[ [ ^.8.X.8._  ._  .} +.-.} } { ` ` 0 ) ^.'.#X:X%XA.4.g.c.].F.Z.1.r.5.m._.>X5XMX2XD.",
"x.F.{.].$XXXV.h.X.q.k.9.V.@X X@Xl.O._ 0 6 6 0 9 5 2 2 J._.oX}.2X2X#Xb.4.m.F.z.z.m.].V.'. X:X3X6X<XD.",
"0.m.C.@X|.{.M.F._._. XXX X:X*X:X2X_.^.k.>.9 5 5 5 2 0 Q.#X[.n.#X:X:X>Xb.9.j.B.XX|.XX{.|.[.#X:X3X%XD.",
"e.k.b.^./.N.D.|.|.}..XXX%X*X#X X[.}.B./.^.Q.W.,.,.q o.^.$X}.M..X3X4X:X$XB.`.#X&X$X$X$X.X[.}..X$XD.n.",
"a.q.q.b.N./././.oX[.'..X[.[.D.h.h.b././.`._.n.^.^.$.@.m.{.|.V.}.>X&X:X$X_. X#X2X#X_.oX'.{.D.V.M.M.N.",
"-Xu.a.a.w.^.(.*X@X|.}.|.XX_..Xv.5.<.r.B.N.n.j.n.b.X...z.M.M.n.@X*X&X&X$X'.|.#X$X}.N. XV.M.V.C.m.N. X",
"nXnXu.,.>.8.b.^.^. X@X X$X X].].x.9.j.0.n.9.@.2.O.3.O.7.z.z.c.oX.XoX|.XX|. X[.&X X'./.V.V.b.7.<.B.^.",
"mXbXJ.c *.#.8.j.N./.N.].'. X'.c.z.m.m.V.m.8.$.7.a.q.q o.8.V.'.M.F.S.|.|.F.{.D.'.V.V.C.x.b.w...o.;.o.",
"bXbXe o 8 f q.(.w.w.j.b.^./.'.n.z.v.v.V.b.q.e.q.>.*.2 9 } w./.b.c.A.A.V.V.v.N.M.x.x.x.0.0.>.q { { f ",
"bX~ F O   o ,.,.0.0.b.k.0.k.n.j.9.n.z.4.7.,.-.{ ` 3 o + f -.q.w.B.g.k.k.j.h.m.h.r.3.3.2.;.} 3 3 7 $ ",
"lXl $ ; @ o =.>.$.0.4.w.3.7.8.8.$.7.e.o.o.{ w 7 +       + f *.} o.o.e.e.7.8.j.5.6.1.7.O.o.{ O   . . ",
"n r z k & . c w *.>.>.e.7.O.>.7.>.,.-.` w w 7   . & ; = O + 8 w f w ` } -.o.q.0.2.<.O.o.=.8 O l L l ",
"u ; # # y l n > 7 f ,.,.q.$.,.-.=.f 8 7 3 o   # r r h m h t $ . O + + 3 w w ,.-.O.>.o.=.w O z z z n ",
"# # & ; t t = .   + w } o.} q q 9 3 +     X r z m r Z m m h h r * &     o 3 9 ` >.o.] 9 o $ % % % t "
};
