/* XPM */
static char *_81d504dccb7495fd1d2a2dc0d1ca7f11F0mYs7cOEvTG68m[] = {
/* columns rows colors chars-per-pixel */
"50 50 250 2 ",
"   c #38140C",
".  c #380D18",
"X  c #2B141B",
"o  c #27181B",
"O  c #33141D",
"+  c #381717",
"@  c #3F080D",
"#  c #34211C",
"$  c #1C1B23",
"%  c #1A1E27",
"&  c #291623",
"*  c #241B23",
"=  c #2C1B24",
"-  c #241A27",
";  c #381622",
":  c #221F32",
">  c #1D222A",
",  c #23232B",
"<  c #29262A",
"1  c #3B252B",
"2  c #282A33",
"3  c #342934",
"4  c #2E3238",
"5  c #35333A",
"6  c #30302E",
"7  c #49080D",
"8  c #570408",
"9  c #490C17",
"0  c #550B16",
"q  c #4A141A",
"w  c #56151C",
"e  c #421D0B",
"r  c #690504",
"t  c #660915",
"y  c #790C1A",
"u  c #66141D",
"i  c #77151A",
"p  c #700B09",
"a  c #562518",
"s  c #6D2316",
"d  c #491B25",
"f  c #561926",
"g  c #520F20",
"h  c #691823",
"j  c #781827",
"k  c #452727",
"l  c #572829",
"z  c #492C34",
"x  c #542934",
"c  c #503735",
"v  c #69242A",
"b  c #79252A",
"n  c #772934",
"m  c #713335",
"M  c #6F4E38",
"N  c #383C44",
"B  c #4B3C47",
"V  c #6A3843",
"C  c #793945",
"Z  c #3E414A",
"A  c #48474B",
"S  c #4B4D54",
"D  c #4D5259",
"F  c #58565A",
"G  c #55494C",
"H  c #7C474B",
"J  c #755154",
"K  c #585964",
"L  c #514769",
"P  c #685E70",
"I  c #5A636F",
"U  c #68666A",
"Y  c #696A75",
"T  c #757579",
"R  c #6D7174",
"E  c #7B6152",
"W  c #910609",
"Q  c #8B0C17",
"!  c #B5171B",
"~  c #891B28",
"^  c #9A1B27",
"/  c #801D31",
"(  c #B21B2A",
")  c #83232C",
"_  c #842835",
"`  c #9A2935",
"'  c #87353A",
"]  c #99343A",
"[  c #883428",
"{  c #A92B37",
"}  c #B62938",
"|  c #A8343B",
" . c #B8323B",
".. c #A7352A",
"X. c #D11C2C",
"o. c #EB1D2D",
"O. c #E41D2C",
"+. c #E41E31",
"@. c #EC1D32",
"#. c #EA1E3A",
"$. c #F01E33",
"%. c #DD262C",
"&. c #DB342E",
"*. c #CC2D3C",
"=. c #C92938",
"-. c #DC2434",
";. c #DD2B33",
":. c #DC253A",
">. c #D32C3B",
",. c #DB2A3B",
"<. c #D42737",
"1. c #CA323D",
"2. c #C7363C",
"3. c #D93637",
"4. c #CB312B",
"5. c #E6242C",
"6. c #EB232C",
"7. c #EA2B2C",
"8. c #E52C2B",
"9. c #E7362A",
"0. c #E32434",
"q. c #EC2333",
"w. c #E32B33",
"e. c #EC2B32",
"r. c #E8263A",
"t. c #F12436",
"y. c #E73734",
"u. c #F13536",
"i. c #C4161F",
"p. c #8E4932",
"a. c #B14D3B",
"s. c #DA4535",
"d. c #D95939",
"f. c #CD4D37",
"g. c #E9472A",
"h. c #E54735",
"j. c #E85538",
"k. c #F85B36",
"l. c #F24834",
"z. c #EC6737",
"x. c #D8623A",
"c. c #873945",
"v. c #973A46",
"b. c #962F44",
"n. c #A83946",
"m. c #BD3442",
"M. c #B63846",
"N. c #B42C41",
"B. c #C62D43",
"V. c #CC3443",
"C. c #C43744",
"Z. c #D83643",
"A. c #D72642",
"S. c #E02D43",
"D. c #98444A",
"F. c #8B4A51",
"G. c #904E52",
"H. c #A8464A",
"J. c #B34B4E",
"K. c #82784D",
"L. c #AC6A52",
"P. c #8D7377",
"I. c #B87277",
"U. c #AD766F",
"Y. c #C64344",
"T. c #D34B48",
"R. c #D2574C",
"E. c #ED514B",
"W. c #CD7152",
"Q. c #EC754B",
"!. c #F47857",
"~. c #ED6E4D",
"^. c #E95862",
"/. c #F7786B",
"(. c #C05861",
"). c #A58A6C",
"_. c #A09864",
"`. c #F5895A",
"'. c #FF9574",
"]. c #F5906B",
"[. c #FEA57A",
"{. c #CC8E79",
"}. c #6B6C85",
"|. c #797A86",
" X c #74758F",
".X c #867C84",
"XX c #967C88",
"oX c #FF7C8B",
"OX c #7F8393",
"+X c #8A888A",
"@X c #888A96",
"#X c #958794",
"$X c #979497",
"%X c #908B90",
"&X c #A99091",
"*X c #ADAD98",
"=X c #9998A7",
"-X c #9290AC",
";X c #A59BA3",
":X c #9EA3AE",
">X c #A6A4A9",
",X c #A8A8B2",
"<X c #B5B6BA",
"1X c #B4ABB0",
"2X c #C99996",
"3X c #D78F85",
"4X c #F08F93",
"5X c #C8AE95",
"6X c #F8A685",
"7X c #F5AD91",
"8X c #CEAFB4",
"9X c #E9A6A8",
"0X c #FEBCBC",
"qX c #EAB2AE",
"wX c #C49EAB",
"eX c #BDC2B5",
"rX c #CECBB8",
"tX c #FFC7AC",
"yX c #FFD6B9",
"uX c #FCC9BA",
"iX c #E1CEA7",
"pX c #B4B5CA",
"aX c #D7BCC3",
"sX c #C0B4C8",
"dX c #BEC0CF",
"fX c #C8C6CA",
"gX c #D9C9C7",
"hX c #CCCDD6",
"jX c #D6D8DB",
"kX c #D3CDD7",
"lX c #F4D0D1",
"zX c #D7D8E5",
"xX c #D0D0E6",
"cX c #E5DDE5",
"vX c #E9E8E9",
"bX c #FEEDED",
"nX c #FBE9E6",
"mX c #EBEDF3",
"MX c #E3E0FB",
"NX c #F8EAF5",
"BX c #F3F3F4",
"VX c #FEF5F4",
"CX c #FDFBF7",
"ZX c #F5F4FA",
"AX c #FDF6FA",
"SX c #F6FDFD",
"DX c #FEFEFE",
"FX c #F5FAF6",
"GX c #F1F4F1",
"HX c #E4E7DF",
/* pixels */
"DXDXDXSXfX<XvXSXDXSXDXDXDXDXDXDXDXDXDXDXDXDXDXDXDXDXSXDXDXDXDXDXDXDXDXDXSXDXDXCXDXSXDXDXSXSXDXDXDXDX",
"CXDXSX$X, , 4 U vXSXSXDXDXDXCXDXDXDXDXDXDXDXDXDXDXSXDXDXCXDXDXDXDXDXDXCXDXDXDXDXDXDXDXmX:XR S K =XDX",
"DXDXDXS D kX$XN 4 <XSXSXDXDXCXDXDXDXDXzX<X<XeXhXmXCXDXDXDXDXSXmXjXvXSXCXSXSXDXDXSXGX%X6 N R OX4 , zX",
"SXSXSXU L SXAXzXD , I zXDXDXCXDXDXjXF , , * o o < G T &X>X$XF < o < G $XmXDXSXSX,X5 5 =XFXSXmXZ 6 vX",
"DXDXDX,X> :XSXDXZXT > 2 Y fXSXSX<X4 , - X 1 M E E M c e     X   M l e   k ;XfXS $ F vXCXDXmXS > :XDX",
"DXDXDXDXK 2 fXDXDXSX<XN $ > 5 F > o X k U.uXlXyXyXyXtX{.L.M p.{.tXtX[.L.v + X = P.FXAXDXZXU > OXDXDX",
"DXDXDXDXvX4 5 cXDXDXDXGX$X5 : : < + [ `.[.`.`.`.`.[.[.[.].`.Q.!.Q.z.Q.!.Q.a.s   1XDXDXSX:X> S FXDXAX",
"DXDXDXDXAX<X- G BXDXSXDXDXZX1X1 ; ' R.j.j.d.d.x.x.x.z.z.z.z.z.g.g.g.g.g.g.d.J.h B DXDXhX2 2 jXFXDXDX",
"DXDXDXDXDXSXS > I SXSXSXDXAXDXB 9 v.T.3.s.f...` p.f.s.9.g.9.l.9.y.7.9.9.7.9.Y.' & hX,X2 % |.NXZXDXSX",
"CXDXhX=X.X|.Z % > T FXSXDXAXDXB 0 N.<.w.! W Q p r W %.5.7.7.6.e.0.@.6.6.6.8.*.y . 3 $ & = & & 3 B J ",
"VXR < o & = * * $ % S >XmXAX,X; y =.0.0.i.i.<.<.4.! %.@.6.6.O.o.+.@.@.O.o.0.( y d X & . 9 9 g g ; O ",
".Xo O k c c z 1 & o & $ 3 F & g N.<.r.q.;.w.0.0.;.;.#.O.t.o.o.6.q.@.@.o.o.0.A.M.v . f V c.F.v.c.C d ",
"3 + G.7XqX5X2XU.G.F.V z O . . v.B.#.#.#.@.+.q.0.A.:.t.o.o.6.$.$.@.@.@.$.o.+.#.B._ 9 F.h q 7 8 b C 0 ",
"= l ].R.p 8 r 8 8 7 q d V 9 t N.:.@.@.#.0.,.A.m.} ( <.#.6.o.$.@.$.o.$.q.+.<.A.B.b.0 _ 0 8 [ ` n.D.0 ",
"O n T.4.! ( } Q y u X ; t N.B.A.@.o.$.+.A.N._ g 9 g } <.0.q.$.$.@.q.@.+.V.^ y b.c.7 b.p ^ 2.4.T.H.7 ",
"; v V.%.&.<.4.<. .) . . ~ B.B.i.#.$.@.0.=.t f d XX2Xy } ,.#.$.$.@.@.@.r.^ t C 9 v t n.^ 2.4.E.].G.9 ",
"- g B.+.5.-.5.8.,.{ w f M.} Q Q :.$.o.:.} u J d H D.y ( Z.E.$.$.@.q.q.>.j 7 m n 9Xn.C.*. .~.'.6Xc = ",
"- . { =.;.%.8.u.h.V.t ) M.^ r  .:.q.@.;. .r t v p.a. .*.>.4X#.@.q.0.0.>.j f ' _ ) j ^ M.) t m p.+ S ",
"2 & v f.s.9.g.z.!.T. .| ` 8 Q 2.;.5.q.w.s.d.d.~.~.j.h.3.=.oX:.-./.r.0.*.v.u C.^.] 0 9 ; . XX& : c jX",
"|.o q m `.!.`.].a.p ^ n.m 8 ..E.y.7.e.e.l.k.k.k.g.g.y.%.=.oX^.V.^.C.^.M.2XI.{ M.v.. & : $ pX:  XBXSX",
"MX3 o + l L.L.{.a U.q V O   W.~.9.8.5.u.E.l.g.9.&.8.e.-.1.4X0X9X9X0XlXNXAXVXU.p.m < .XK }.@X}.XXzXDX",
"DXcXR < o +     o %X& & - 1 '.Q.9.8.7.7.7.7.8.&.>.=.X.>. .lXbXbXVXAXAXDXAXAXAX&XG 3 ZX<X-X}.pXXX=XxX",
"DXDXSXBX<X+XY L XX-X-XB : d 7X!.3.e.6.q.6.0.>.} Q p W m.4XbXAXAXDXAXDXDXDXDXSXDXcX3 #X1XXXXXXXsX}.-X",
"DXDXCXDXSXSXxXOX-X}.L -X3 d 7X'.h.y.5.6.t.e.=.W ` b.n.(.nXCXDXDXDXDXDXDXDXDXSXvXfXT F cXaXsXsXxXpXpX",
"DXCXDXDXDXDX,XxX1XwXaX&XXX+ {.7XE.9.7.t.6.q.-.>.N.v.H.qXAXDX+XF HXDXDXDXDXDXGXS fX$Xc 8X8XgXaXgXzX X",
"SXDXDXDXDXcX X-XcXaXwX8XgX+ M tX`.h.8.e.q.e.r.,.Q i w lXAXDXDXT S BXDXDXDXDX%X%XSXR F nX&XF.J 1XxXxX",
"DXDXDXDXAXpXMXxX8XgXlXaXFXB a {.[.z.h.9.e.t.r.>.{ 0 q gXAXDXDXBXA vXDXDXDXDX<X<XcX2 ,XcXc.H.G.P.ZXI ",
"DXDXDXDXAX:X}.xXcXP.H &XvXU k M 6X`.j.y.q.e.q.,.M.t # %XAXDXDXCXvXDXDXSXDXDXSXSXR T fXVXI.D.qX8XZXxX",
"DXDXDXDXDX,XMXMXwXF.G.G.nXP.z l L.[.~.g.e.q.r.:.3.~   6 hXDXDXAXDXmXhX<X>X>XpX@X4 vXeXCXiXp._.5XzXI ",
"DXDXDXDXDX,X}.cXqXG.I.I.bX&XH f a L.'.j.l.7.5.e.%. .9 o < Y >X#XD 4 K R U 3 , , $XSXrXrX5Xp.M iXzXpX",
"DXDXDXDXZX>XkXNXnX).2XqXnXL.H.~ a a W.~.j.y.e.q.8.2.v o * % $ % B |.Y D k = = 3 BXCXGX*X*XK.K.vXdXOX",
"DXDXSXDXDX<X,X$XrX).M 2XlXH.C.C.h q s R.E.y.7.6.6.s.] . & * X X X & & = + V k P DXDXDXeXiXrXGXZX:XOX",
"DXDXDXCXCXBX|.jX_._.M iXtX| >.>.N.t 9 u H.T.w.5.9.h.J.7 . . h 8 8 g O . g G.d P.DXCXDXCX*X<XrX=X%XcX",
"DXDXCXDXDXAX-X+XeX_.&XlX3X .:.r.*. .0 7 0 { *.&.8.j.W.s . m n.J.M.H.C 9 y D.d ;XCXDXDXDXDXvXjXFXDXDX",
"DXDXSXDXDXDXhX+XrXGXFXlX] *.%.+.0.;.} i 0 0 ) 2.g.j.Q.p.  d n.*.V.m.v.0 y H.+ pXDXSXDXDXDXDXDXDXDXDX",
"DXDXDXDXDXDXDXhXU +X:X).~ *.0.o.6.0.,.C.n f h | f.j.z.W.  . h ^ ( ` h 7 ^ n.+ kXSXDXSXDXDXDXDXSXDXDX",
"DXDXDXDXDXDXDXDXDXSXSXVXc.M.:.@.$.@.0.,.C.` f j 2.s.~.[.a + E P.J F.H 7 ..] + ZXSXDXDXDXDXDXDXDXDXDX",
"DXDXSXDXDXDXDXDXDXSXCXCX9X` A.#.#.#.q.0.S.V.) j { f.R.6XL.  + G J J q u  .{ d DXDXDXDXDXDXDXDXDXDXDX",
"DXDXCXDXSXDXDXDXDXDXCXDXNXc.B.#.#.t.5.q.r.Z.C.~ j H.f.!.7XW.p.s v i ^ 2.V.^ V SXDXDXCXDXCXDXDXDXDXDX",
"DXDXDXDXDXDXDXDXDXCXDXDXCX2X` A.r.@.q.t.q.r.V.n.h m Y.f.!.'.].^.T.2.,.,.V.~ P.ZXDXDXDXCXCXDXDXDXDXDX",
"DXDXDXDXSXDXDXDXDXSXDXDXDXbXn m.:.@.@.@.@.S.M.c.x x _ Y.3.&.w.8.;.;.r.<.C.t 1XDXDXDXDXDXDXDXDXDXDXDX",
"DXDXDXDXDXDXDXDXSXDXDXDXDXCX&X) B.#.o.o.r.A.b.x >X;Xf ) M.1.<.,.>.=.>.m.~ f NXDXDXDXDXDXDXDXDXDXDXDX",
"DXDXDXDXDXDXDXDXDXCXDXDXAXDXbXl N.A.@.r.<.N.0 P.DXFX&X+ q v _ _ ) n n g + ;XDXSXDXDXDXDXDXSXDXDXDXDX",
"DXDXDXDXDXDXDXDXDXDXDXDXDXDXDX&Xh B.:.-.1.i x ZXFXDXCXrXF ; ; . . + X c >XCXSXDXDXDXDXCXDXDXDXDXDXDX",
"DXDXDXDXDXSXDXDXDXDXSXDXDXDXSXVXl / =.A.` 7 1XDXDXDXDXDXCXVXcXfXgXgXmXDXDXDXDXDXDXCXFXCXDXDXDXDXDXDX",
"DXDXDXDXDXDXDXDXSXDXDXDXDXDXDXVX#X9 { M.q c VXDXDXDXDXDXDXDXSXDXDXDXDXSXDXSXDXDXDXDXDXCXDXDXDXDXDXDX",
"SXDXDXDXDXDXDXDXDXDXDXDXDXDXDXDXvXk q C & ;XDXDXDXDXDXDXDXDXDXDXDXDXDXDXDXDXCXDXDXDXDXDXDXDXDXDXDXDX",
"DXDXDXDXDXDXDXDXCXCXDXDXDXDXDXCXDX+XX X 3 mXDXDXDXDXDXDXDXDXCXDXDXDXDXDXDXDXDXDXDXDXDXDXDXDXDXDXDXDX",
"DXDXDXDXDXDXDXDXDXDXDXDXDXDXDXDXDXmX6 * U DXDXDXDXDXDXDXDXDXDXDXDXDXDXDXDXDXDXDXDXDXDXDXDXDXDXDXDXDX",
"DXDXDXDXDXDXDXDXDXDXDXDXDXDXDXDXDXDXBXBXZXDXDXCXDXDXDXDXDXDXDXDXDXDXDXDXDXDXDXDXDXDXDXDXDXDXDXDXDXDX"
};
